<svg xmlns="http://www.w3.org/2000/svg" width="38" height="38" viewBox="0 0 38 38">
  <g id="Group_20" data-name="Group 20" transform="translate(-432 -2056)">
    <circle id="Ellipse_1" data-name="Ellipse 1" cx="19" cy="19" r="19" transform="translate(432 2056)" fill="#fff"/>
    <path id="Path_12" data-name="Path 12" d="M2.672-12.32a.353.353,0,0,1,.3-.148.353.353,0,0,1,.3.148l4.9,4.9a.353.353,0,0,1,.148.3.353.353,0,0,1-.148.3l-4.9,4.9a.353.353,0,0,1-.3.148.353.353,0,0,1-.3-.148L1.93-2.635a.461.461,0,0,1-.148-.334.353.353,0,0,1,.148-.3L4.936-6.16h-12.8a.429.429,0,0,1-.315-.13.429.429,0,0,1-.13-.315V-7.645a.429.429,0,0,1,.13-.315.429.429,0,0,1,.315-.13h12.8L1.93-10.984a.353.353,0,0,1-.148-.3.461.461,0,0,1,.148-.334Z" transform="translate(451 2082)" fill="#3c70c6"/>
  </g>
</svg>
