<svg xmlns="http://www.w3.org/2000/svg" width="109.052" height="120.844" viewBox="0 0 109.052 120.844">
  <g id="Group_67" data-name="Group 67" transform="translate(-910.948 -1053.847)">
    <path id="Path_23" data-name="Path 23" d="M11375.7-5762s-14.5,9.773-39.927,9.773c0,82.131-3.831,76.63,39.927,104.94,42.595-27.559,39.905-18.16,39.905-104.94C11386.768-5752.227,11375.7-5762,11375.7-5762Z" transform="translate(-10422.255 6819)" fill="#fff" stroke="#3c70c6" stroke-width="5"/>
    <g id="Ellipse_22" data-name="Ellipse 22" transform="translate(962 1116)" fill="#fff" stroke="#3c70c6" stroke-width="5">
      <circle cx="29" cy="29" r="29" stroke="none"/>
      <circle cx="29" cy="29" r="26.5" fill="none"/>
    </g>
    <text id="check" transform="translate(975 1156)" fill="#3c70c6" font-size="32" font-family="FontAwesome5ProRegular, "Font Awesome 5 Pro""><tspan x="0" y="0">check</tspan></text>
    <path id="Path_24" data-name="Path 24" d="M11373.055-5731.556s10.959-4.166,22.6,0a35.267,35.267,0,0,0,22.446,0" transform="translate(-10442.501 6817.855)" fill="none" stroke="#3c70c6" stroke-linecap="round" stroke-width="5"/>
    <path id="Path_25" data-name="Path 25" d="M11373.055-5731.556s10.959-4.166,22.6,0a35.267,35.267,0,0,0,22.446,0" transform="translate(-10442.501 6828.415)" fill="none" stroke="#3c70c6" stroke-linecap="round" stroke-width="5"/>
    <path id="Path_26" data-name="Path 26" d="M11373.055-5731.556s10.959-4.166,22.6,0a35.267,35.267,0,0,0,22.446,0" transform="translate(-10442.501 6838.974)" fill="none" stroke="#3c70c6" stroke-linecap="round" stroke-width="5"/>
  </g>
</svg>
