<svg xmlns="http://www.w3.org/2000/svg" width="116" height="116" viewBox="0 0 116 116"><g transform="translate(-683 -4292)"><g transform="translate(683 4292)" fill="none" stroke="#13abf4" stroke-width="2" stroke-dasharray="6"><circle cx="58" cy="58" r="58" stroke="none"/><circle cx="58" cy="58" r="57" fill="none"/></g><circle cx="48" cy="48" r="48" transform="translate(693 4302)" fill="#13abf4"/><path d="M15.91,5.945a4.984,4.984,0,0,1,1.559-3.637,5.109,5.109,0,0,1,7.348,0,4.984,4.984,0,0,1,1.559,3.637v4.23h.074a6.468,6.468,0,0,1,2.969.891,5.992,5.992,0,0,1,2.561.111,5.616,5.616,0,0,1,2.264,1.15,6.108,6.108,0,0,1,4.639,1.633,6.546,6.546,0,0,1,1.744,4.9v1.781a10.787,10.787,0,0,1-.594,3.414,27.331,27.331,0,0,1-1.262,2.82,15.914,15.914,0,0,0-1.262,3.043,2.194,2.194,0,0,1,.742,1.707v4.75a2.408,2.408,0,0,1-2.375,2.375H19.25a2.408,2.408,0,0,1-2.375-2.375v-4.75a2.187,2.187,0,0,1,1.113-2,8.336,8.336,0,0,0-2.227-2.449,23.582,23.582,0,0,0-2.746-2.078q-.371-.223-1.41-.742a9.975,9.975,0,0,1-2.82-1.559,3.8,3.8,0,0,1-1.41-3.043,5.51,5.51,0,0,1,1.484-3.9,4.858,4.858,0,0,1,3.711-1.6A7.994,7.994,0,0,1,15.91,15Zm3.34,30.43H35.875v-4.75H19.25ZM24,5.945a2.7,2.7,0,0,0-.854-1.967,2.779,2.779,0,0,0-4.008,0,2.7,2.7,0,0,0-.854,1.967v12.84a4.361,4.361,0,0,1-1.855-.742,18.923,18.923,0,0,0-1.633-.965,6.047,6.047,0,0,0-2.264-.445,2.574,2.574,0,0,0-1.967.891A3.17,3.17,0,0,0,9.75,19.75a1.719,1.719,0,0,0,.816,1.41,12.124,12.124,0,0,0,1.818.965,17.985,17.985,0,0,1,1.893.965,22.65,22.65,0,0,1,3.488,2.672,9.724,9.724,0,0,1,2.672,3.488h14.77a18.544,18.544,0,0,1,1.41-3.414,25.951,25.951,0,0,0,1.113-2.449,8.358,8.358,0,0,0,.52-2.746V18.859a4.12,4.12,0,0,0-1.3-3.414,4.563,4.563,0,0,0-3.674-.668,3.058,3.058,0,0,0-1.855-1.3,2.909,2.909,0,0,0-2.449.26,3.66,3.66,0,0,0-2.561-1.15A3.46,3.46,0,0,0,24,13.367Zm9.5,26.57a1.522,1.522,0,1,0,1.039.445A1.424,1.424,0,0,0,33.5,32.516Z" transform="translate(717.5 4339)" fill="#fff"/><path d="M705.028,4322.3h-3.437a3.09,3.09,0,0,0-3.3,3.3v3.1" transform="translate(24.441 5.094)" fill="none" stroke="#fff" stroke-linecap="round" stroke-width="2.7"/><path d="M6.735,0H3.3A3.09,3.09,0,0,0,0,3.3V6.4" transform="translate(754.693 4346.941) rotate(180)" fill="none" stroke="#fff" stroke-linecap="round" stroke-width="2.7"/><path d="M6.735,0H3.3A3.09,3.09,0,0,0,0,3.3V6.4" transform="translate(722.893 4346.941) rotate(-90)" fill="none" stroke="#fff" stroke-linecap="round" stroke-width="2.7"/><path d="M6.735,0H3.3A3.09,3.09,0,0,0,0,3.3V6.4" transform="translate(754.533 4327.391) rotate(90)" fill="none" stroke="#fff" stroke-linecap="round" stroke-width="2.7"/></g></svg>