<svg xmlns="http://www.w3.org/2000/svg" width="116" height="116" viewBox="0 0 116 116"><g transform="translate(-1561 -4292)"><g transform="translate(1561 4292)" fill="none" stroke="#13abf4" stroke-width="2" stroke-dasharray="6"><circle cx="58" cy="58" r="58" stroke="none"/><circle cx="58" cy="58" r="57" fill="none"/></g><circle cx="48" cy="48" r="48" transform="translate(1571 4302)" fill="#13abf4"/><path d="M43.594,5.5a1.721,1.721,0,0,1,1.373.668A1.559,1.559,0,0,1,45.3,7.652L42.109,23.09a1.885,1.885,0,0,1-.631,1A1.625,1.625,0,0,1,40.4,24.5H15.762l.891,4.75H38.621a1.831,1.831,0,0,1,1.15.371,1.706,1.706,0,0,1,.631.965A4.65,4.65,0,0,1,41.813,34a4.75,4.75,0,1,1-9.5,0,4.54,4.54,0,0,1,.668-2.375H22.145A4.54,4.54,0,0,1,22.813,34a4.689,4.689,0,0,1-4.75,4.75,4.59,4.59,0,0,1-3.377-1.373,4.5,4.5,0,0,1-1.373-3.3,4.579,4.579,0,0,1,1.262-3.266L9.379,3.125H3.516a.887.887,0,0,1-.891-.891V1.641a.859.859,0,0,1,.26-.631A.859.859,0,0,1,3.516.75H9.824a1.723,1.723,0,0,1,1.15.408,1.906,1.906,0,0,1,.631,1.076L12.2,5.5ZM20.438,34a2.362,2.362,0,0,0-4.045-1.67,2.362,2.362,0,1,0,3.34,3.34A2.282,2.282,0,0,0,20.438,34Zm16.625,2.375a2.408,2.408,0,1,0-1.67-.705A2.282,2.282,0,0,0,37.063,36.375Zm2.82-14.25,2.969-14.25H12.645l2.672,14.25Z" transform="translate(1594.5 4331)" fill="#fff"/></g></svg>