<svg xmlns="http://www.w3.org/2000/svg" width="116" height="116" viewBox="0 0 116 116"><g transform="translate(-1122 -4292)"><g transform="translate(1122 4292)" fill="none" stroke="#13abf4" stroke-width="2" stroke-dasharray="6"><circle cx="58" cy="58" r="58" stroke="none"/><circle cx="58" cy="58" r="57" fill="none"/></g><circle cx="48" cy="48" r="48" transform="translate(1132 4302)" fill="#13abf4"/><path d="M37.063.75A.872.872,0,0,1,37.8,1.2l7.422,12.1a.768.768,0,0,1-.074,1.039L24.668,38.453a.9.9,0,0,1-1.336,0L2.848,14.332a.768.768,0,0,1-.074-1.039L10.2,1.2A.872.872,0,0,1,10.938.75ZM36.023,3.422H31.2l4.156,9.2h6.16Zm-7.793,0H19.77l-4.23,9.2H32.461Zm-16.254,0-5.492,9.2h6.16l4.156-9.2ZM7.152,15l11.5,14.25L12.57,15Zm8.313,0L24,34.594,32.535,15ZM29.344,29.25,40.848,15H35.43Z" transform="translate(1156 4333)" fill="#fff"/></g></svg>