<svg xmlns="http://www.w3.org/2000/svg" width="116" height="116" viewBox="0 0 116 116"><g transform="translate(-244 -4292)"><g transform="translate(244 4292)" fill="none" stroke="#13abf4" stroke-width="2" stroke-dasharray="6"><circle cx="58" cy="58" r="58" stroke="none"/><circle cx="58" cy="58" r="57" fill="none"/></g><circle cx="48" cy="48" r="48" transform="translate(254 4302)" fill="#13abf4"/><path d="M31.031,3.438A28.54,28.54,0,0,1,39.469,4.58a13.414,13.414,0,0,1,5.186,2.593,4.524,4.524,0,0,1,1.846,3.3V27.344a4.458,4.458,0,0,1-1.846,3.34,13.821,13.821,0,0,1-5.1,2.549,29.665,29.665,0,0,1-7.119,1.143v1.406A4.457,4.457,0,0,1,30.372,39.3a16.219,16.219,0,0,1-5.625,2.549,29.613,29.613,0,0,1-7.778.967,29.613,29.613,0,0,1-7.778-.967A16.219,16.219,0,0,1,3.565,39.3,4.457,4.457,0,0,1,1.5,35.781V18.906q0-2.812,4.307-4.834a23.773,23.773,0,0,1,9.756-2.109V10.469a4.629,4.629,0,0,1,2.2-3.6,14.914,14.914,0,0,1,2.285-1.406h0A27.049,27.049,0,0,1,31.031,3.438ZM29.625,35.781V31.387a16.776,16.776,0,0,1-5.449,2.2,31.225,31.225,0,0,1-7.207.791,31.225,31.225,0,0,1-7.207-.791,16.776,16.776,0,0,1-5.449-2.2v4.395q0,.7,1.494,1.67a14.276,14.276,0,0,0,4.219,1.758A28.607,28.607,0,0,0,16.969,40a28.607,28.607,0,0,0,6.943-.791,14.276,14.276,0,0,0,4.219-1.758Q29.625,36.484,29.625,35.781Zm0-8.437V22.949a16.776,16.776,0,0,1-5.449,2.2,31.225,31.225,0,0,1-7.207.791,31.225,31.225,0,0,1-7.207-.791,16.776,16.776,0,0,1-5.449-2.2v4.395q0,.7,1.494,1.67a14.276,14.276,0,0,0,4.219,1.758,28.607,28.607,0,0,0,6.943.791,28.607,28.607,0,0,0,6.943-.791,14.276,14.276,0,0,0,4.219-1.758Q29.625,28.047,29.625,27.344ZM16.969,23.125a29.741,29.741,0,0,0,9.141-1.23q3.779-1.23,3.779-2.988t-3.779-2.988a29.741,29.741,0,0,0-9.141-1.23,29.741,29.741,0,0,0-9.141,1.23q-3.779,1.23-3.779,2.988t3.779,2.988A29.741,29.741,0,0,0,16.969,23.125Zm26.719,4.219V22.949a17.589,17.589,0,0,1-4.878,2.021,27.2,27.2,0,0,1-6.372.879v5.625a22.549,22.549,0,0,0,6.152-.967,10.79,10.79,0,0,0,3.779-1.67Q43.688,27.959,43.688,27.344Zm0-8.437V14.512a16.4,16.4,0,0,1-5.054,2.065,34.577,34.577,0,0,1-6.548.923,3.531,3.531,0,0,1,.352,1.406v4.131a28.174,28.174,0,0,0,6.152-.967,13.469,13.469,0,0,0,3.779-1.67Q43.688,19.521,43.688,18.906ZM31.031,14.688a29.741,29.741,0,0,0,9.141-1.23q3.779-1.23,3.779-2.988T40.172,7.48a29.741,29.741,0,0,0-9.141-1.23,29.741,29.741,0,0,0-9.141,1.23q-3.779,1.23-3.779,2.988a1.954,1.954,0,0,0,.879,1.494,22.42,22.42,0,0,1,10.2,2.637h.352Q30.5,14.688,31.031,14.688Z" transform="translate(278.5 4328)" fill="#fff"/></g></svg>