<svg id="Group_66" data-name="Group 66" xmlns="http://www.w3.org/2000/svg" width="265.338" height="64.116" viewBox="0 0 265.338 64.116">
  <g id="Group_52" data-name="Group 52">
    <g id="Group_49" data-name="Group 49" transform="translate(0 23.231)">
      <path id="Path_57" data-name="Path 57" d="M0,115.77l32.595,32.593v8.292L0,124.066Z" transform="translate(0 -115.77)" fill="#45aa21"/>
    </g>
    <g id="Group_50" data-name="Group 50">
      <path id="Path_58" data-name="Path 58" d="M26.749,2.55v24.2L0,0V8.29L32.595,40.884V2.55Z" fill="#1f3980"/>
    </g>
    <g id="Group_51" data-name="Group 51" transform="translate(0 11.615)">
      <path id="Path_59" data-name="Path 59" d="M0,66.172,32.595,98.764v-8.29L0,57.88Z" transform="translate(0 -57.88)" fill="#1f3980"/>
    </g>
  </g>
  <g id="Group_65" data-name="Group 65" transform="translate(45.377 19.186)">
    <g id="Group_58" data-name="Group 58">
      <g id="Group_53" data-name="Group 53" transform="translate(0 0.309)">
        <path id="Path_60" data-name="Path 60" d="M250.734,124.575l-21.295-19.5v19.485H226.13V97.15l21.295,19.5V97.266h3.309Z" transform="translate(-226.13 -97.15)" fill="#1f3980"/>
      </g>
      <g id="Group_54" data-name="Group 54" transform="translate(48.937)">
        <path id="Path_61" data-name="Path 61" d="M483.565,123.637a12.738,12.738,0,0,1-6.871-1.926,14.165,14.165,0,0,1-4.9-5.119,14.5,14.5,0,0,1,0-13.956,14.212,14.212,0,0,1,4.9-5.1,13.252,13.252,0,0,1,13.762,0,14.211,14.211,0,0,1,4.9,5.1,14.235,14.235,0,0,1-4.9,19.076A12.777,12.777,0,0,1,483.565,123.637Zm0-2.92a9.471,9.471,0,0,0,5.119-1.461,10.957,10.957,0,0,0,3.736-3.991,11.924,11.924,0,0,0,0-11.29,10.99,10.99,0,0,0-3.736-3.991,9.664,9.664,0,0,0-10.218,0,10.958,10.958,0,0,0-3.736,3.991,11.778,11.778,0,0,0,0,11.29,10.99,10.99,0,0,0,3.736,3.991A9.438,9.438,0,0,0,483.565,120.718Z" transform="translate(-470 -95.61)" fill="#1f3980"/>
      </g>
      <g id="Group_55" data-name="Group 55" transform="translate(94.99 0.425)">
        <path id="Path_62" data-name="Path 62" d="M712.913,125.2,699.5,97.73h3.562l9.869,19.912L722.994,97.73h3.562Z" transform="translate(-699.5 -97.73)" fill="#1f3980"/>
      </g>
      <g id="Group_56" data-name="Group 56" transform="translate(145.075 0.425)">
        <path id="Path_63" data-name="Path 63" d="M959.758,125.254a10.735,10.735,0,0,1-7.826-3.094,9.33,9.33,0,0,1-2.841-6.658V97.73H952.4V115.5a6.664,6.664,0,0,0,2,4.75,7.537,7.537,0,0,0,5.314,2.083,7.851,7.851,0,0,0,5.47-2.472,6.229,6.229,0,0,0,1.926-4.3V97.73h3.309V115.5a9.036,9.036,0,0,1-2.7,6.249A11.382,11.382,0,0,1,959.758,125.254Z" transform="translate(-949.09 -97.73)" fill="#1f3980"/>
      </g>
      <g id="Group_57" data-name="Group 57" transform="translate(190.334 0.289)">
        <path id="Path_64" data-name="Path 64" d="M1204.255,124.477h-3.289V105.5l-11.7,13.314-11.348-13.158v18.823h-3.289V97.05l14.657,17.013,14.97-17.013v27.427Z" transform="translate(-1174.63 -97.05)" fill="#1f3980"/>
      </g>
    </g>
    <g id="Group_64" data-name="Group 64" transform="translate(48.975 33.965)">
      <g id="Group_59" data-name="Group 59" transform="translate(0 0)">
        <path id="Path_65" data-name="Path 65" d="M475.151,264.87h1.15l4.961,10.962h-1.322l-1.274-2.878h-5.924l-1.29,2.878h-1.26Zm3.034,6.967L475.71,266.3l-2.488,5.536Z" transform="translate(-470.19 -264.87)" fill="#1f3980"/>
      </g>
      <g id="Group_60" data-name="Group 60" transform="translate(28.768 0.078)">
        <path id="Path_66" data-name="Path 66" d="M613.552,265.26h1.228v9.75h6.126v1.136H613.55V265.26Z" transform="translate(-613.55 -265.26)" fill="#1f3980"/>
      </g>
      <g id="Group_61" data-name="Group 61" transform="translate(53.946 0.078)">
        <path id="Path_67" data-name="Path 67" d="M739.02,265.26h4.074c2.456,0,4.074,1.306,4.074,3.451v.03c0,2.348-1.958,3.562-4.276,3.562h-2.643v3.841H739.02Zm3.919,5.926c1.8,0,2.986-.963,2.986-2.394v-.032c0-1.555-1.166-2.364-2.924-2.364h-2.753v4.79Z" transform="translate(-739.02 -265.26)" fill="#1f3980"/>
      </g>
      <g id="Group_62" data-name="Group 62" transform="translate(79.884 0.078)">
        <path id="Path_68" data-name="Path 68" d="M868.28,265.26h1.228V270.1h6.283V265.26h1.228v10.886h-1.228v-4.9h-6.283v4.9H868.28Z" transform="translate(-868.28 -265.26)" fill="#1f3980"/>
      </g>
      <g id="Group_63" data-name="Group 63" transform="translate(106.318 0)">
        <path id="Path_69" data-name="Path 69" d="M1004.972,264.87h1.15l4.961,10.962h-1.322l-1.274-2.878h-5.926l-1.29,2.878h-1.26Zm3.032,6.967-2.472-5.536-2.488,5.536Z" transform="translate(-1000.01 -264.87)" fill="#1f3980"/>
      </g>
    </g>
  </g>
</svg>
