<svg xmlns="http://www.w3.org/2000/svg" width="109.075" height="122.179" viewBox="0 0 109.075 122.179">
  <g id="Group_169" data-name="Group 169" transform="translate(-554.554 -1518.797)">
    <g id="Group_58" data-name="Group 58" transform="translate(581.963 1608.728)">
      <path id="Path_95" data-name="Path 95" d="M3.631.427l-6.04,15.635H46.273L38.809-.283" transform="translate(2.409 0.283)" fill="none" stroke="#002d68" stroke-width="4"/>
    </g>
    <g id="Group_59" data-name="Group 59" transform="translate(556.952 1571.03)">
      <path id="Path_96" data-name="Path 96" d="M0,0H96.654S90.081,41.933,48.86,41.933,0,0,0,0" fill="none"/>
    </g>
    <g id="Group_60" data-name="Group 60" transform="translate(556.952 1571.03)">
      <path id="Path_97" data-name="Path 97" d="M0,0H96.654S90.081,41.933,48.86,41.933,0,0,0,0Z" fill="none" stroke="#002d68" stroke-width="4"/>
    </g>
    <g id="Group_61" data-name="Group 61" transform="translate(604.025 1519.968)">
      <path id="Path_98" data-name="Path 98" d="M2.468,0s9.239,12.794,0,22.033,0,21.321,0,21.321" transform="translate(1.638)" fill="#c3e2ff" stroke="#002d68" stroke-width="4"/>
    </g>
    <g id="Group_62" data-name="Group 62" transform="translate(619.077 1531.091)">
      <path id="Path_99" data-name="Path 99" d="M1.851,0s6.93,9.595,0,16.525,0,15.991,0,15.991" transform="translate(1.228)" fill="#c3e2ff" stroke="#002d68" stroke-width="4"/>
    </g>
    <g id="Group_63" data-name="Group 63" transform="translate(588.031 1531.091)">
      <path id="Path_100" data-name="Path 100" d="M1.851,0s6.93,9.595,0,16.525,0,15.991,0,15.991" transform="translate(1.228)" fill="#c3e2ff" stroke="#002d68" stroke-width="4"/>
    </g>
    <g id="Group_64" data-name="Group 64" transform="translate(607.379 1589.725)">
      <path id="Path_101" data-name="Path 101" d="M14.8,29.607A24.626,24.626,0,1,0-9.822,4.982,24.624,24.624,0,0,0,14.8,29.607" transform="translate(9.822 19.644)" fill="#fff"/>
    </g>
    <g id="Group_65" data-name="Group 65" transform="translate(607.379 1589.725)">
      <path id="Path_102" data-name="Path 102" d="M14.8,29.607A24.626,24.626,0,1,0-9.822,4.982,24.624,24.624,0,0,0,14.8,29.607Z" transform="translate(9.822 19.644)" fill="none" stroke="#13abf5" stroke-width="4"/>
    </g>
    <path id="Path_103" data-name="Path 103" d="M0,73.221H108.932v-121.8H0Z" transform="translate(554.698 1567.447)" fill="none"/>
    <path id="Path_2736" data-name="Path 2736" d="M22.992-19.248a.57.57,0,0,1,.422-.158.771.771,0,0,1,.475.158l1.477,1.529a.5.5,0,0,1,.211.422.656.656,0,0,1-.211.475L9.545-1a.57.57,0,0,1-.422.158A.771.771,0,0,1,8.648-1L1.635-8.068a.5.5,0,0,1-.211-.422.656.656,0,0,1,.211-.475l1.477-1.477a.656.656,0,0,1,.475-.211.5.5,0,0,1,.422.211L9.123-5.326Z" transform="translate(618.857 1622.686)" fill="#13abf5"/>
  </g>
</svg>
