<svg xmlns="http://www.w3.org/2000/svg" width="125.564" height="106.778" viewBox="0 0 125.564 106.778">
  <g id="Group_71" data-name="Group 71" transform="translate(-886.664 -1916.747)">
    <path id="Path_106" data-name="Path 106" d="M4155.414,1953.353l10.858,5.79s1.979,1.831,1.48,6.53-4.837,19.608-8.777,25.546-8,5.161-8,5.161l-9.73-3.7" transform="translate(-3252 -5.362)" fill="none" stroke="#002d68" stroke-linecap="round" stroke-width="4"/>
    <path id="Path_108" data-name="Path 108" d="M4154.354,1953.353l-11.462,5.79s-2.089,1.831-1.562,6.53,5.106,19.608,9.265,25.546,8.446,5.161,8.446,5.161l10.272-3.7" transform="translate(-3159.644 -5.362)" fill="none" stroke="#002d68" stroke-linecap="round" stroke-width="4"/>
    <path id="Path_107" data-name="Path 107" d="M4177.622,1962.64l34.383-2.746" transform="translate(-3261.79 -7.123)" fill="none" stroke="#002d68" stroke-linecap="round" stroke-width="4"/>
    <path id="Path_109" data-name="Path 109" d="M4250.6,1961.209a14.884,14.884,0,0,1-16.217,2.229c-9.716-4.21-12.967-3.8-17.571-3.7s-12.521,8.361-12.521,8.361-.783.783-1.179,3.536a11.819,11.819,0,0,1-3.368,7.014c-2.072,2.189-1.8,4.724,0,6.349s11.055.429,14.65-10.3h6.845l30.238,26.777s2.746,1.622,9.96-5.208" transform="translate(-3267.353 -7.065)" fill="none" stroke="#002d68" stroke-width="4"/>
    <path id="Path_110" data-name="Path 110" d="M4260.967,2013s4.015,3.281.73,7.505c-2.178,2.846-4.761,3.054-8.329,0s-20.72-18.608-20.72-18.608" transform="translate(-3276.598 -18.427)" fill="none" stroke="#002d68" stroke-linecap="round" stroke-width="4"/>
    <path id="Path_111" data-name="Path 111" d="M4260.967,2013s4.015,3.281.73,7.505c-2.178,2.846-4.761,3.054-8.329,0s-20.72-18.608-20.72-18.608" transform="translate(-3285.368 -11.85)" fill="none" stroke="#002d68" stroke-linecap="round" stroke-width="4"/>
    <path id="Path_112" data-name="Path 112" d="M4263.512,2015.518s5.43,3.726,2.146,7.951c-2.178,2.846-5.493,2.323-9.061-.731s-11.949-9.837-11.949-9.837" transform="translate(-3299.561 -10.424)" fill="none" stroke="#002d68" stroke-linecap="round" stroke-width="4"/>
    <path id="Path_113" data-name="Path 113" d="M4163.731,2009.015l11.994,7.54" transform="translate(-3258.052 -20.342)" fill="none" stroke="#002d68" stroke-linecap="round" stroke-width="4"/>
    <rect id="Rectangle_105" data-name="Rectangle 105" width="18.791" height="8.987" rx="4.494" transform="translate(923.397 2007.492) rotate(-50)" fill="none" stroke="#002d68" stroke-width="4"/>
    <rect id="Rectangle_106" data-name="Rectangle 106" width="14.706" height="8.987" rx="4.494" transform="translate(933.434 2011.959) rotate(-50)" fill="none" stroke="#002d68" stroke-width="4"/>
    <rect id="Rectangle_108" data-name="Rectangle 108" width="14.706" height="8.987" rx="4.494" transform="translate(913.826 2001.338) rotate(-50)" fill="none" stroke="#002d68" stroke-width="4"/>
    <rect id="Rectangle_107" data-name="Rectangle 107" width="10.621" height="8.987" rx="4.494" transform="translate(943.822 2014.931) rotate(-50)" fill="none" stroke="#002d68" stroke-width="4"/>
    <path id="Path_114" data-name="Path 114" d="M4210.612,1935.072l-4.184-20.206" transform="translate(-3269.542 4.995)" fill="none" stroke="#13abf4" stroke-linecap="round" stroke-width="4"/>
    <path id="Path_115" data-name="Path 115" d="M4.183,20.206,0,0" transform="matrix(0.921, 0.391, -0.391, 0.921, 959.273, 1919.847)" fill="none" stroke="#13abf4" stroke-linecap="round" stroke-width="4"/>
    <path id="Path_116" data-name="Path 116" d="M0,14.552,3.263,0" transform="matrix(0.921, 0.391, -0.391, 0.921, 974.802, 1930.339)" fill="none" stroke="#13abf4" stroke-linecap="round" stroke-width="4"/>
    <path id="Path_117" data-name="Path 117" d="M0,14.552,3.263,0" transform="matrix(0.695, -0.719, 0.719, 0.695, 916.662, 1933.794)" fill="none" stroke="#13abf4" stroke-linecap="round" stroke-width="4"/>
  </g>
</svg>
