<svg xmlns="http://www.w3.org/2000/svg" width="125.723" height="81.527" viewBox="0 0 125.723 81.527">
  <g id="Group_76" data-name="Group 76" transform="translate(-311 -1501.119)">
    <g id="Group_72" data-name="Group 72" transform="translate(313 1503.119)">
      <path id="Path_118" data-name="Path 118" d="M3685.2,1922.119h-63.506v63.8H3653.7" transform="translate(-3579.295 -1922.119)" fill="none" stroke="#002d68" stroke-linecap="round" stroke-width="4"/>
      <path id="Path_119" data-name="Path 119" d="M3692.989,2002.066h10.334v-15.92" transform="translate(-3597.274 -1938.264)" fill="none" stroke="#002d68" stroke-linecap="round" stroke-width="4"/>
      <path id="Path_120" data-name="Path 120" d="M3607.4,1946.466H3586.58S3565,1946,3565,1968.047v23.865h20.084" transform="translate(-3565 -1928.259)" fill="none" stroke="#002d68" stroke-linecap="round" stroke-width="4"/>
      <g id="Ellipse_28" data-name="Ellipse 28" transform="translate(18.479 54.527)" fill="none" stroke="#002d68" stroke-width="4">
        <circle cx="12.5" cy="12.5" r="12.5" stroke="none"/>
        <circle cx="12.5" cy="12.5" r="10.5" fill="none"/>
      </g>
      <g id="Ellipse_29" data-name="Ellipse 29" transform="translate(72.479 54.527)" fill="none" stroke="#002d68" stroke-width="4">
        <ellipse cx="12" cy="12.5" rx="12" ry="12.5" stroke="none"/>
        <ellipse cx="12" cy="12.5" rx="10" ry="10.5" fill="none"/>
      </g>
      <path id="Path_121" data-name="Path 121" d="M3683.045,1939.506h33.444" transform="translate(-3594.766 -1926.504)" fill="none" stroke="#13abf4" stroke-linecap="round" stroke-width="4"/>
      <path id="Path_122" data-name="Path 122" d="M3683.045,1939.506h25.741" transform="translate(-3594.766 -1915.286)" fill="none" stroke="#13abf4" stroke-linecap="round" stroke-width="4"/>
      <path id="Path_123" data-name="Path 123" d="M3683.045,1939.506h18.681" transform="translate(-3594.766 -1904.069)" fill="none" stroke="#13abf4" stroke-linecap="round" stroke-width="4"/>
      <path id="Path_124" data-name="Path 124" d="M3590.123,1948.034v22.353s1.016,10.823-10.823,10.823h-14.1" transform="translate(-3565.051 -1928.654)" fill="none" stroke="#002d68" stroke-width="4"/>
    </g>
  </g>
</svg>
