<svg xmlns="http://www.w3.org/2000/svg" width="121" height="88.597" viewBox="0 0 121 88.597">
  <g id="Group_168" data-name="Group 168" transform="translate(-327 -1887.202)">
    <g id="Group_73" data-name="Group 73" transform="translate(27.18 -46.066)">
      <path id="Subtraction_2" data-name="Subtraction 2" d="M34.731,88.6A44.163,44.163,0,0,1,3.407,75.622,44.978,44.978,0,0,1,0,71.8l1.989-1.88a41.548,41.548,0,0,0,65.084.5l1.886,2c-.91,1.1-1.887,2.179-2.9,3.2A44.163,44.163,0,0,1,34.731,88.6ZM67.112,18.22a41.547,41.547,0,0,0-64.759,0l-2-1.865a45.075,45.075,0,0,1,3.053-3.378,44.262,44.262,0,0,1,62.648,0A45.086,45.086,0,0,1,69.1,16.345l-1.99,1.874h0Z" transform="translate(326.265 1933.268)" fill="#002d68"/>
      <g id="Ellipse_30" data-name="Ellipse 30" transform="translate(377.82 1956.066)" fill="#fff" stroke="#002d68" stroke-width="4">
        <circle cx="21.5" cy="21.5" r="21.5" stroke="none"/>
        <circle cx="21.5" cy="21.5" r="19.5" fill="none"/>
      </g>
      <g id="Ellipse_31" data-name="Ellipse 31" transform="translate(299.82 1956.066)" fill="#fff" stroke="#002d68" stroke-width="4">
        <circle cx="21.5" cy="21.5" r="21.5" stroke="none"/>
        <circle cx="21.5" cy="21.5" r="19.5" fill="none"/>
      </g>
      <path id="Path_126" data-name="Path 126" d="M21.96-21.475a4.251,4.251,0,0,1-.424,2.969,4.56,4.56,0,0,1-.118,1.649,4.4,4.4,0,0,1-.683,1.508,4.2,4.2,0,0,1-1.32,3.2,5.677,5.677,0,0,1-4.006,1.272H14.373a14.558,14.558,0,0,1-3.629-.424,19.064,19.064,0,0,1-2.356-.8q-.848-.33-1.225-.471a4,4,0,0,0-1.178-.189,1.628,1.628,0,0,1-.542.8,1.4,1.4,0,0,1-.919.33H1.508a1.449,1.449,0,0,1-1.06-.448A1.449,1.449,0,0,1,0-13.134v-11.31A1.449,1.449,0,0,1,.448-25.5a1.449,1.449,0,0,1,1.06-.448H6.173a16.538,16.538,0,0,0,1.6-1.909,22.711,22.711,0,0,1,1.649-2,3.7,3.7,0,0,0,.424-1.367A10.625,10.625,0,0,1,10.7-33.68,2.3,2.3,0,0,1,12.771-35a4.46,4.46,0,0,1,3.3,1.178,5.236,5.236,0,0,1,1.225,3.77,5.911,5.911,0,0,1-.424,2.168h1.7a3.836,3.836,0,0,1,2.875,1.225,3.959,3.959,0,0,1,1.178,2.828A4.612,4.612,0,0,1,21.96-21.475ZM19.086-18.93a2.324,2.324,0,0,0,.73-1.626,2.029,2.029,0,0,0-.495-1.484q.33,0,.683-.566a2.269,2.269,0,0,0,.353-1.225,1.783,1.783,0,0,0-.518-1.225,1.659,1.659,0,0,0-1.272-.566h-4.9A3.277,3.277,0,0,1,13.9-26.8a6.476,6.476,0,0,1,.424-.99q.33-.66.471-1.037a3.392,3.392,0,0,0,.236-1.225,4.23,4.23,0,0,0-.283-1.791,2.089,2.089,0,0,0-1.979-.9,2.7,2.7,0,0,0-.424.8,9.456,9.456,0,0,0-.236.99q-.189.943-.33,1.414a3.517,3.517,0,0,1-.8,1.272,19.43,19.43,0,0,0-1.367,1.7,18.71,18.71,0,0,1-1.555,1.932,2.418,2.418,0,0,1-1.508.943H6.032v8.765a7.224,7.224,0,0,1,1.744.236,17.347,17.347,0,0,1,1.7.566q1.414.471,2.168.66a9.927,9.927,0,0,0,2.5.33h1.744a2.647,2.647,0,0,0,2.026-.707,2.716,2.716,0,0,0,.518-2.4,1.844,1.844,0,0,0,.8-1.155A1.982,1.982,0,0,0,19.086-18.93ZM4.147-14.642a1.091,1.091,0,0,0-.33-.8,1.091,1.091,0,0,0-.8-.33,1.091,1.091,0,0,0-.8.33,1.091,1.091,0,0,0-.33.8,1.091,1.091,0,0,0,.33.8,1.091,1.091,0,0,0,.8.33,1.091,1.091,0,0,0,.8-.33A1.091,1.091,0,0,0,4.147-14.642Z" transform="translate(387.794 1999.65)" fill="#13abf5"/>
      <path id="Path_125" data-name="Path 125" d="M9.985-23.6a4.89,4.89,0,0,1,2.9,2.286,4.733,4.733,0,0,1,.542,3.652,4.709,4.709,0,0,1-1.838,2.733A5.212,5.212,0,0,1,8.43-13.888H8.289v2.262a.734.734,0,0,1-.212.542.734.734,0,0,1-.542.212H6.027a.734.734,0,0,1-.542-.212.734.734,0,0,1-.212-.542v-2.262H5.131a6.508,6.508,0,0,1-4.053-1.367.792.792,0,0,1-.306-.566.839.839,0,0,1,.212-.613l1.084-1.037a.58.58,0,0,1,.471-.236.989.989,0,0,1,.518.141,3.537,3.537,0,0,0,2.074.66H8.619a1.809,1.809,0,0,0,1.461-.683,1.832,1.832,0,0,0,.424-1.532,1.6,1.6,0,0,0-.448-.99,2.289,2.289,0,0,0-1.013-.613L3.576-22.276a4.89,4.89,0,0,1-2.9-2.286,4.733,4.733,0,0,1-.542-3.652,4.709,4.709,0,0,1,1.838-2.733,5.282,5.282,0,0,1,3.2-1.037h.094v-2.262a.734.734,0,0,1,.212-.542A.734.734,0,0,1,6.027-35H7.535a.734.734,0,0,1,.542.212.734.734,0,0,1,.212.542v2.262H8.43a6.508,6.508,0,0,1,4.053,1.367.792.792,0,0,1,.306.566.7.7,0,0,1-.212.566L11.493-28.4a.58.58,0,0,1-.471.236.989.989,0,0,1-.518-.141,3.537,3.537,0,0,0-2.074-.66H4.943a1.809,1.809,0,0,0-1.461.683,1.832,1.832,0,0,0-.424,1.532,1.6,1.6,0,0,0,.448.99,2.289,2.289,0,0,0,1.013.613Z" transform="translate(314.812 2000.253)" fill="#13abf5"/>
      <path id="Subtraction_4" data-name="Subtraction 4" d="M33.726,86.6A42.745,42.745,0,0,1,3.309,73.915,43.869,43.869,0,0,1,0,70.182l1.932-1.838a40.183,40.183,0,0,0,63.2.49l1.831,1.956c-.884,1.079-1.832,2.13-2.819,3.124A42.745,42.745,0,0,1,33.726,86.6ZM65.169,17.809a40.18,40.18,0,0,0-62.885,0L.344,15.984a43.958,43.958,0,0,1,2.964-3.3,42.8,42.8,0,0,1,60.835,0A43.968,43.968,0,0,1,67.1,15.976L65.17,17.808h0Z" transform="translate(327.265 1934.268)" fill="#002d68"/>
    </g>
  </g>
</svg>
