<svg xmlns="http://www.w3.org/2000/svg" xmlns:xlink="http://www.w3.org/1999/xlink" width="116.302" height="102.168" viewBox="0 0 116.302 102.168">
  <defs>
    <clipPath id="clip-path">
      <path id="Path_105" data-name="Path 105" d="M0,54.944H69.815V-47.224H0Z" transform="translate(0 47.224)" fill="none"/>
    </clipPath>
  </defs>
  <g id="Group_74" data-name="Group 74" transform="translate(-1451.755 -1470.501)">
    <g id="Group_69" data-name="Group 69" transform="translate(1474.124 1470.501)" clip-path="url(#clip-path)">
      <g id="Group_68" data-name="Group 68" transform="translate(3.38 1.603)">
        <path id="Path_104" data-name="Path 104" d="M11.318,11.3V12l21.461-.213.117,0C71.716-14.563,30.952-.266,30.952-.266s-.979-9.431-8-9.431-7.7,9.1-7.7,9.1S1.07-5.213-2.2-3.421,12.016,12,12.016,12-24.364,60.651-2.848,78.3s43.729,5.844,50,.522c6.208-5.266,19.908-23.17-14.214-67.465" transform="translate(9.653 9.698)" fill="none" stroke="#002d68" stroke-width="4"/>
      </g>
    </g>
    <text id="_" data-name="$" transform="translate(1499.778 1539.068)" fill="#14aaf4" font-size="30" font-family="ComicSansMS, Comic Sans MS"><tspan x="0" y="0">$</tspan></text>
    <path id="Path_128" data-name="Path 128" d="M4827.909,1528.272l11.1-10.8" transform="translate(-3284.814 -19.776)" fill="none" stroke="#002d68" stroke-linecap="round" stroke-width="4"/>
    <path id="Path_133" data-name="Path 133" d="M0,10.8,11.1,0" transform="translate(1463.602 1535.093) rotate(-135)" fill="none" stroke="#002d68" stroke-linecap="round" stroke-width="4"/>
    <path id="Path_129" data-name="Path 129" d="M0,10.8,11.1,0" transform="matrix(0.921, 0.391, -0.391, 0.921, 1550.53, 1507.128)" fill="none" stroke="#002d68" stroke-linecap="round" stroke-width="4"/>
    <path id="Path_132" data-name="Path 132" d="M0,10.8,11.1,0" transform="translate(1463.53 1522.556) rotate(-112)" fill="none" stroke="#002d68" stroke-linecap="round" stroke-width="4"/>
    <path id="Path_130" data-name="Path 130" d="M0,10.8,11.1,0" transform="matrix(0.731, 0.682, -0.682, 0.731, 1555.943, 1519.094)" fill="none" stroke="#002d68" stroke-linecap="round" stroke-width="4"/>
    <path id="Path_131" data-name="Path 131" d="M0,10.8,11.1,0" transform="matrix(-0.035, -0.999, 0.999, -0.035, 1466.683, 1509.653)" fill="none" stroke="#002d68" stroke-linecap="round" stroke-width="4"/>
  </g>
</svg>
